# xmcd
#
# Track frame offsets: 
#        150
#        16610
#        31845
#        48095
#        66872
#        83142
#        99882
#        117960
#        137660
#        152250
#
# Disc length: 2248 seconds
#
# Revision: 0
# Processed by: cddbd v1.5.2PL0 Copyright (c) Steve Scherf et al.
# Submitted via: ExactAudioCopyFreeDBPlugin 1.0
#
DISCID=6508c60a
DTITLE=王心凌 - CYNDILOVES2SING 爱。心凌
DYEAR=2018
DGENRE=
TTITLE0=在青春迷失的咖啡馆
TTITLE1=披着狼皮的羊
TTITLE2=爱的重量
TTITLE3=生命中最美好缺憾
TTITLE4=教海鸥飞行的猫
TTITLE5=劈你的雷在路上
TTITLE6=大眠
TTITLE7=到处不存在的我
TTITLE8=房客
TTITLE9=沉睡的森林
EXTD=
EXTT0=
EXTT1=
EXTT2=
EXTT3=
EXTT4=
EXTT5=
EXTT6=
EXTT7=
EXTT8=
EXTT9=
PLAYORDER=
